<svg version="1.1" id="rio" xmlns="http://www.w3.org/2000/svg" xmlns:xlink="http://www.w3.org/1999/xlink" x="0px" y="0px"
  viewBox="0 0 512 512" style="enable-background:new 0 0 512 512;" xml:space="preserve">
  <g>
    <g>
      <path d="M367.084,482h-0.802v-64.438c0-8.284-6.716-15-15-15H339.65l-1.988-45.536l-158.505-110.54l-6.813,156.076h-11.631
        c-8.284,0-15,6.716-15,15V482h-0.802c-8.284,0-15,6.716-15,15s6.716,15,15,15h222.172c8.284,0,15-6.716,15-15
        S375.368,482,367.084,482z"/>
    </g>
  </g>
  <g>
    <g>
      <path d="M462.37,85.088H304.915l-8.967-71.943C295.013,5.636,288.631,0,281.064,0h-50.13c-7.567,0-13.949,5.636-14.885,13.145
        l-8.967,71.943H87.478c-0.039,0.001-37.849,0-37.849,0c-8.284,0-15,6.716-15,15s6.716,15,15,15h27.278l16.166,48.352
        c1.744,5.215,6.201,9.059,11.616,10.016l77.064,13.619l-1.044,23.917L336.02,319.303l-5.772-132.228l77.064-13.619
        c5.415-0.957,9.872-4.801,11.616-10.016l16.166-48.352h27.278c8.284,0,15-6.716,15-15S470.654,85.088,462.37,85.088z"/>
    </g>
  </g>
</svg>