<svg id="Speaker" data-name="Speaker" xmlns="http://www.w3.org/2000/svg" viewBox="0 0 275.46 622.15">
  <defs>
    <style>.cls-1{fill:#4e4e4e;}.cls-2{fill:#aeaeae;}.cls-3{fill:#cecece;}</style>
  </defs>
  <title>som</title>
  <polygon class="cls-1" points="235.13 0 77.23 36.04 0 612.28 213.47 622.1 235.46 0.81 235.13 0"/>
  <polygon class="cls-2" points="5.85 607.39 81.86 40.27 230.11 6.43 208.51 616.72 5.85 607.39"/>
  <path class="cls-1" d="M582.29,698.49,376.93,689l.18-1.39,76.13-568L604,85.23ZM379.85,686.6l200,9.2,21.5-607.32L455.56,121.75Z" transform="translate(-372.54 -80.43)"/>
  <polygon class="cls-1" points="235.46 0.81 213.47 622.1 214.53 622.15 275.46 602.41 275.46 97.83 235.46 0.81"/>
  <path class="cls-1" d="M581.08,362.37C564,407.06,516.36,434.22,476.15,425c-38.23-8.82-57.53-48-44.41-89.18,13.57-42.57,57.49-74.13,99.63-68.9C575.85,272.39,598.86,316,581.08,362.37Z" transform="translate(-372.54 -80.43)"/>
  <path class="cls-3" d="M572.93,360.62c-15.23,39.75-57.57,63.91-93.34,55.67-34-7.85-51.17-42.73-39.5-79.33,12.07-37.87,51.14-65.94,88.62-61.29C568.28,280.58,588.74,319.37,572.93,360.62Z" transform="translate(-372.54 -80.43)"/>
  <path class="cls-1" d="M494,418.54a64.83,64.83,0,0,1-14.55-1.63,54.77,54.77,0,0,1-35.79-26.35c-8.82-15.49-10.31-34.6-4.19-53.8,11.32-35.48,46.15-62.24,81-62.24a69.1,69.1,0,0,1,8.29.51c18.09,2.25,32.92,11.59,41.76,26.33,10,16.66,11.09,38.34,3,59.49C560.72,394.28,527.27,418.54,494,418.54Zm26.5-142.73c-34.34,0-68.65,26.37-79.8,61.34-6,18.86-4.56,37.6,4.08,52.77a53.5,53.5,0,0,0,35,25.74A64,64,0,0,0,494,417.25c32.76,0,65.7-23.91,78.33-56.86,8-20.78,6.92-42.05-2.88-58.37-8.64-14.38-23.13-23.52-40.82-25.71A66.59,66.59,0,0,0,520.5,275.81Z" transform="translate(-372.54 -80.43)"/>
  <path class="cls-3" d="M565.22,359c-13.44,35.08-50.8,56.4-82.37,49.12-30-6.92-45.16-37.7-34.86-70,10.65-33.41,45.13-58.19,78.21-54.08C561.12,288.33,579.18,322.56,565.22,359Z" transform="translate(-372.54 -80.43)"/>
  <path class="cls-1" d="M495.56,410.15a57.45,57.45,0,0,1-12.85-1.43,48.43,48.43,0,0,1-31.64-23.3c-7.79-13.68-9.11-30.57-3.7-47.53,10-31.35,40.77-55,71.58-55a59.61,59.61,0,0,1,7.33.45c16,2,29.09,10.24,36.91,23.26,8.83,14.72,9.8,33.89,2.63,52.58C554.51,388.72,525,410.15,495.56,410.15ZM519,284.2c-30.27,0-60.52,23.25-70.35,54.08-5.3,16.62-4,33.14,3.59,46.51A47.14,47.14,0,0,0,483,407.46a56.1,56.1,0,0,0,12.56,1.41c28.89,0,57.93-21.09,69.06-50.13,7-18.32,6.1-37.07-2.54-51.45-7.6-12.68-20.38-20.72-36-22.65A56.92,56.92,0,0,0,519,284.2Z" transform="translate(-372.54 -80.43)"/>
  <path class="cls-3" d="M560.09,357.87c-12.25,32-46.3,51.4-75.07,44.76-27.35-6.31-41.16-34.36-31.77-63.8,9.71-30.45,41.13-53,71.27-49.29C556.35,293.49,572.81,324.69,560.09,357.87Z" transform="translate(-372.54 -80.43)"/>
  <path class="cls-1" d="M496.6,404.57a52.24,52.24,0,0,1-11.72-1.31A44.17,44.17,0,0,1,456,382c-7.11-12.49-8.31-27.9-3.38-43.37,9.12-28.59,37.18-50.15,65.29-50.15a54.83,54.83,0,0,1,6.68.41c14.59,1.81,26.55,9.35,33.68,21.23,8.07,13.43,8.94,30.92,2.41,48C550.37,385,523.42,404.57,496.6,404.57Zm21.32-114.79c-27.57,0-55.11,21.17-64.06,49.25-4.83,15.13-3.66,30.17,3.27,42.34a42.9,42.9,0,0,0,28,20.64,51.34,51.34,0,0,0,11.43,1.27c26.3,0,52.75-19.19,62.89-45.65,6.39-16.67,5.55-33.74-2.31-46.84-6.92-11.53-18.55-18.85-32.73-20.61A52.63,52.63,0,0,0,517.92,289.78Z" transform="translate(-372.54 -80.43)"/>
  <path class="cls-3" d="M554.91,356.75c-11,28.84-41.76,46.36-67.7,40.38-24.67-5.69-37.12-31-28.66-57.54,8.76-27.47,37.1-47.83,64.28-44.46C551.54,298.69,566.38,326.83,554.91,356.75Z" transform="translate(-372.54 -80.43)"/>
  <path class="cls-1" d="M497.65,398.94a47,47,0,0,1-10.59-1.19A39.89,39.89,0,0,1,461,378.55c-6.42-11.27-7.51-25.18-3.05-39.16,8.23-25.8,33.57-45.27,58.94-45.27a50.32,50.32,0,0,1,6,.37c13.18,1.64,24,8.45,30.43,19.18,7.28,12.13,8.07,27.92,2.17,43.32C546.19,381.29,521.86,398.94,497.65,398.94Zm19.23-103.53c-24.84,0-49.65,19.08-57.71,44.37-4.35,13.63-3.3,27.18,2.94,38.14a38.62,38.62,0,0,0,25.24,18.58,46.19,46.19,0,0,0,10.3,1.15c23.7,0,47.52-17.29,56.66-41.13,5.76-15,5-30.4-2.08-42.19-6.23-10.38-16.7-17-29.47-18.56A47.85,47.85,0,0,0,516.88,295.41Z" transform="translate(-372.54 -80.43)"/>
  <path class="cls-1" d="M537.61,355.39c-5.73,15-21.66,24.06-35.13,20.95-12.79-2.95-19.26-16.08-14.86-29.86,4.54-14.25,19.24-24.81,33.35-23.06C535.86,325.27,543.56,339.87,537.61,355.39Z" transform="translate(-372.54 -80.43)"/>
  <path class="cls-1" d="M571.56,207.29c-12.22,31.88-46.18,51.26-74.87,44.65-27.28-6.29-41.05-34.27-31.69-63.63,9.69-30.38,41-52.89,71.09-49.16C567.82,143.09,584.24,174.2,571.56,207.29Z" transform="translate(-372.54 -80.43)"/>
  <path class="cls-3" d="M565.74,206c-10.87,28.36-41.07,45.6-66.59,39.72-24.27-5.6-36.52-30.48-28.19-56.61,8.61-27,36.49-47,63.23-43.72C562.42,148.93,577,176.61,565.74,206Z" transform="translate(-372.54 -80.43)"/>
  <path class="cls-1" d="M509.43,248.19A46.79,46.79,0,0,1,498.86,247a39.86,39.86,0,0,1-26.07-19.2c-6.41-11.25-7.5-25.12-3.06-39.05,8.18-25.64,33.37-45,58.6-45a50.15,50.15,0,0,1,6,.37c13.16,1.63,24,8.44,30.4,19.18,7.27,12.1,8.07,27.84,2.2,43.17C557.69,230.66,533.5,248.19,509.43,248.19Zm18.9-101.83c-24.16,0-48.29,18.56-56.15,43.19-4.21,13.23-3.21,26.36,2.84,37a37.39,37.39,0,0,0,24.42,18,44.53,44.53,0,0,0,10,1.12c23,0,46.22-16.84,55.11-40,5.59-14.59,4.87-29.51-2-40.93-6-10-16.16-16.41-28.51-17.94A47.19,47.19,0,0,0,528.33,146.36Z" transform="translate(-372.54 -80.43)"/>
  <path class="cls-3" d="M558.74,204.54c-9.24,24.12-34.93,38.78-56.63,33.77-20.64-4.76-31.06-25.92-24-48.13,7.33-23,31-40,53.78-37.19C555.92,156,568.33,179.51,558.74,204.54Z" transform="translate(-372.54 -80.43)"/>
  <path class="cls-1" d="M510.85,239.93a39.59,39.59,0,0,1-8.89-1,33.51,33.51,0,0,1-21.88-16.11c-5.39-9.46-6.3-21.13-2.56-32.85,6.9-21.63,28.14-37.94,49.4-37.94a42.6,42.6,0,0,1,5.07.31c11,1.37,20.11,7.09,25.52,16.09,6.11,10.18,6.78,23.42,1.83,36.33C551.53,225.14,531.14,239.93,510.85,239.93Zm16.07-86.6c-20.73,0-41.44,15.93-48.17,37-3.63,11.38-2.76,22.68,2.45,31.82a32.2,32.2,0,0,0,21.05,15.49,38.23,38.23,0,0,0,8.6,1c19.77,0,39.66-14.44,47.29-34.33,4.8-12.54,4.17-25.37-1.73-35.21-5.2-8.65-13.93-14.15-24.58-15.47A40,40,0,0,0,526.92,153.33Z" transform="translate(-372.54 -80.43)"/>
  <path class="cls-3" d="M555.83,203.91c-8.57,22.35-32.38,35.94-52.49,31.3-19.13-4.41-28.79-24-22.22-44.61,6.79-21.29,28.76-37.08,49.84-34.46C553.21,158.9,564.72,180.71,555.83,203.91Z" transform="translate(-372.54 -80.43)"/>
  <path class="cls-1" d="M511.44,236.76a36.93,36.93,0,0,1-8.25-.92,31.1,31.1,0,0,1-20.31-15c-5-8.77-5.84-19.6-2.38-30.47,6.4-20.07,26.11-35.2,45.84-35.2a38.76,38.76,0,0,1,4.7.29c10.26,1.27,18.67,6.58,23.69,14.94,5.67,9.44,6.29,21.72,1.7,33.7C549.18,223,530.26,236.76,511.44,236.76Zm14.9-80.26c-19.19,0-38.37,14.74-44.61,34.3-3.36,10.53-2.55,21,2.27,29.45a29.8,29.8,0,0,0,19.48,14.34,35.51,35.51,0,0,0,8,.89c18.31,0,36.72-13.37,43.79-31.8,4.44-11.6,3.86-23.48-1.6-32.58-4.81-8-12.89-13.1-22.75-14.32A36.05,36.05,0,0,0,526.34,156.5Z" transform="translate(-372.54 -80.43)"/>
  <path class="cls-3" d="M552,203.1c-7.69,20-29,32.24-47.09,28.07-17.15-3.95-25.81-21.55-19.93-40,6.09-19.11,25.8-33.27,44.71-30.92C549.68,162.72,560,182.29,552,203.1Z" transform="translate(-372.54 -80.43)"/>
  <path class="cls-1" d="M512.21,232.63a33,33,0,0,1-7.41-.83,27.92,27.92,0,0,1-18.26-13.44c-4.5-7.9-5.26-17.63-2.14-27.4,5.75-18,23.45-31.62,41.18-31.62a34.9,34.9,0,0,1,4.22.26c9.22,1.15,16.79,5.91,21.3,13.43,5.1,8.49,5.65,19.53,1.53,30.3C546.12,220.31,529.12,232.63,512.21,232.63Zm13.37-72c-17.19,0-34.37,13.21-40,30.72-3,9.43-2.28,18.79,2,26.37a26.67,26.67,0,0,0,17.43,12.83,31.58,31.58,0,0,0,7.12.79c16.4,0,32.89-12,39.22-28.47,4-10.4,3.46-21-1.43-29.18-4.31-7.16-11.54-11.72-20.36-12.81A32.19,32.19,0,0,0,525.58,160.63Z" transform="translate(-372.54 -80.43)"/>
  <path class="cls-1" d="M540.54,202.31c-4.09,10.67-15.46,17.16-25.06,14.95-9.13-2.11-13.75-11.48-10.61-21.3,3.24-10.17,13.73-17.71,23.8-16.46C539.29,180.82,544.79,191.23,540.54,202.31Z" transform="translate(-372.54 -80.43)"/>
  <path class="cls-3" d="M525.84,191.61c-1.6,4.16-6,6.7-9.79,5.83-3.56-.82-5.36-4.48-4.13-8.32s5.36-6.9,9.28-6.42C525.35,183.22,527.5,187.28,525.84,191.61Z" transform="translate(-372.54 -80.43)"/>
  <path class="cls-3" d="M518.42,338.35c-2,5.35-7.75,8.6-12.57,7.49-4.57-1.06-6.89-5.75-5.31-10.68,1.62-5.09,6.88-8.87,11.93-8.25C517.79,327.58,520.55,332.8,518.42,338.35Z" transform="translate(-372.54 -80.43)"/>
  <path class="cls-1" d="M466.45,130.16a5.72,5.72,0,0,1-6.23,3.71c-2.27-.52-3.42-2.85-2.64-5.29a5.85,5.85,0,0,1,5.92-4.1C466.14,124.81,467.51,127.4,466.45,130.16Z" transform="translate(-372.54 -80.43)"/>
  <path class="cls-1" d="M596.22,100.23A5.73,5.73,0,0,1,590,104c-2.27-.53-3.42-2.86-2.64-5.3a5.84,5.84,0,0,1,5.92-4.09C595.91,94.88,597.28,97.47,596.22,100.23Z" transform="translate(-372.54 -80.43)"/>
  <path class="cls-1" d="M395.71,676.83a5.73,5.73,0,0,1-6.23,3.72c-2.27-.53-3.42-2.86-2.64-5.3a5.84,5.84,0,0,1,5.92-4.09C395.4,671.48,396.76,674.07,395.71,676.83Z" transform="translate(-372.54 -80.43)"/>
  <path class="cls-1" d="M572.17,686.36c-1,2.65-3.84,4.27-6.23,3.71s-3.42-2.85-2.64-5.29a5.83,5.83,0,0,1,5.92-4.09C571.86,681,573.22,683.6,572.17,686.36Z" transform="translate(-372.54 -80.43)"/>
  <path class="cls-1" d="M577.84,543.79c-16.12,54.41-70.19,88.83-117.87,77-45-11.19-66.93-59.7-51.52-108.43,15.24-48.22,62.64-82.49,108.31-76.73C565.15,441.69,593.77,490,577.84,543.79Z" transform="translate(-372.54 -80.43)"/>
  <path class="cls-3" d="M568.48,541.7C554,589.88,506,620.23,463.83,609.76c-39.83-9.87-59.51-52.75-46-96,13.41-43,55.67-73.77,96.47-68.61C557.52,450.57,582.88,493.83,568.48,541.7Z" transform="translate(-372.54 -80.43)"/>
  <path class="cls-1" d="M480.9,612.47a71.79,71.79,0,0,1-17.23-2.08A64.66,64.66,0,0,1,422.55,579c-10.54-18.71-12.49-42.58-5.35-65.49,12.57-40.34,49.61-69.63,88.06-69.63a72.59,72.59,0,0,1,9.11.58,64.86,64.86,0,0,1,47.08,29.25c12.23,18.82,15,43.66,7.64,68.16C556.79,582.78,519.7,612.47,480.9,612.47Zm24.36-167.29c-37.9,0-74.42,28.9-86.83,68.72-7,22.57-5.12,46.07,5.24,64.48A63.36,63.36,0,0,0,464,609.14a70.22,70.22,0,0,0,16.92,2c38.24,0,74.81-29.3,87-69.67,7.26-24.14,4.53-48.59-7.49-67.09a63.66,63.66,0,0,0-46.16-28.68A71.93,71.93,0,0,0,505.26,445.18Z" transform="translate(-372.54 -80.43)"/>
  <path class="cls-3" d="M556.81,539.61C544.55,580.34,504,606,468.34,597.15c-33.67-8.35-50.3-44.6-38.9-81.2,11.34-36.39,47.07-62.37,81.56-58C547.54,462.57,569,499.14,556.81,539.61Z" transform="translate(-372.54 -80.43)"/>
  <path class="cls-1" d="M482.77,599.53a60.56,60.56,0,0,1-14.58-1.76,54.72,54.72,0,0,1-34.83-26.57c-8.92-15.84-10.58-36.05-4.53-55.44,10.64-34.15,42-58.94,74.54-58.94a61.74,61.74,0,0,1,7.71.49A54.92,54.92,0,0,1,551,482.09c10.35,15.93,12.71,37,6.47,57.7C547,574.41,515.61,599.53,482.77,599.53Zm20.6-141.42c-32,0-62.84,24.41-73.32,58-5.93,19.05-4.32,38.89,4.43,54.43a53.54,53.54,0,0,0,34,26,59.7,59.7,0,0,0,14.28,1.72c32.29,0,63.17-24.74,73.42-58.83,6.13-20.38,3.83-41-6.32-56.63a53.69,53.69,0,0,0-38.95-24.21A61.09,61.09,0,0,0,503.37,458.11Z" transform="translate(-372.54 -80.43)"/>
  <path class="cls-3" d="M550.56,538.49c-11.06,36.74-47.62,59.88-79.8,51.9-30.38-7.53-45.38-40.23-35.1-73.25,10.23-32.82,42.46-56.25,73.58-52.32C542.2,469,561.54,502,550.56,538.49Z" transform="translate(-372.54 -80.43)"/>
  <path class="cls-1" d="M483.78,592.61A54.66,54.66,0,0,1,470.6,591a49.46,49.46,0,0,1-31.46-24c-8.05-14.3-9.55-32.55-4.09-50.06,9.61-30.83,37.91-53.2,67.3-53.2a55.62,55.62,0,0,1,7,.43,49.63,49.63,0,0,1,36,22.39c9.35,14.38,11.48,33.37,5.85,52.1C541.77,569.93,513.43,592.61,483.78,592.61ZM502.35,465c-28.84,0-56.63,22-66.07,52.3-5.35,17.17-3.9,35,4,49a48.15,48.15,0,0,0,30.64,23.39,53.6,53.6,0,0,0,12.87,1.55c29.09,0,56.92-22.3,66.16-53,5.53-18.37,3.45-37-5.69-51a48.34,48.34,0,0,0-35.09-21.81A55.09,55.09,0,0,0,502.35,465Z" transform="translate(-372.54 -80.43)"/>
  <path class="cls-3" d="M544,537.3c-9.79,32.53-42.15,53-70.64,46-26.89-6.67-40.16-35.62-31.06-64.84,9.05-29,37.58-49.79,65.12-46.31C536.55,475.79,553.67,505,544,537.3Z" transform="translate(-372.54 -80.43)"/>
  <path class="cls-1" d="M484.84,585.28a48.44,48.44,0,0,1-11.68-1.41,43.81,43.81,0,0,1-27.89-21.28c-7.15-12.68-8.47-28.86-3.63-44.37,8.51-27.32,33.59-47.15,59.64-47.15a48.67,48.67,0,0,1,6.17.39,44,44,0,0,1,31.93,19.84c8.29,12.75,10.18,29.59,5.19,46.19C536.23,565.18,511.11,585.28,484.84,585.28Zm16.44-112.92c-25.5,0-50.07,19.45-58.41,46.24-4.73,15.18-3.45,31,3.52,43.36a42.58,42.58,0,0,0,27.08,20.66A47.32,47.32,0,0,0,484.84,584c25.72,0,50.32-19.72,58.49-46.88,4.89-16.24,3-32.68-5-45.12a42.73,42.73,0,0,0-31-19.26A48,48,0,0,0,501.28,472.36Z" transform="translate(-372.54 -80.43)"/>
  <path class="cls-1" d="M528.18,535.46c-5.7,17.8-23.47,28.75-39,25-14.73-3.58-22.42-19.29-17.79-35.54,4.73-16.55,20.79-28.64,36.55-26.61C524.59,500.44,534,517.28,528.18,535.46Z" transform="translate(-372.54 -80.43)"/>
  <path class="cls-3" d="M506.48,515.49c-2.49,6.52-9.43,10.48-15.3,9.12-5.57-1.28-8.39-7-6.47-13,2-6.21,8.38-10.81,14.53-10.05C505.72,502.37,509.08,508.73,506.48,515.49Z" transform="translate(-372.54 -80.43)"/>
</svg>